<svg xmlns="http://www.w3.org/2000/svg" width="1024" height="500" viewBox="0 0 1024 500">
  <defs>
    <linearGradient id="background" x1="44" y1="12" x2="966" y2="500" gradientUnits="userSpaceOnUse">
      <stop stop-color="#062E27"/>
      <stop offset=".55" stop-color="#0C5144"/>
      <stop offset="1" stop-color="#1B7A68"/>
    </linearGradient>
    <linearGradient id="wand" x1="600" y1="408" x2="746" y2="262" gradientUnits="userSpaceOnUse">
      <stop stop-color="#6F2A92"/>
      <stop offset=".48" stop-color="#A747BF"/>
      <stop offset="1" stop-color="#E1A4E9"/>
    </linearGradient>
    <linearGradient id="gold" x1="752" y1="204" x2="822" y2="274" gradientUnits="userSpaceOnUse">
      <stop stop-color="#FFF2A8"/>
      <stop offset=".46" stop-color="#FFD363"/>
      <stop offset="1" stop-color="#F29B30"/>
    </linearGradient>
    <linearGradient id="silver" x1="0" y1="0" x2="1" y2="1">
      <stop stop-color="#FFFFFF"/>
      <stop offset="1" stop-color="#D3D8E5"/>
    </linearGradient>
    <filter id="shadow" x="-30%" y="-30%" width="160%" height="160%">
      <feDropShadow dx="0" dy="10" stdDeviation="12" flood-color="#021A16" flood-opacity=".35"/>
    </filter>
    <filter id="cardShadow" x="-20%" y="-20%" width="140%" height="140%">
      <feDropShadow dx="0" dy="16" stdDeviation="18" flood-color="#04231D" flood-opacity=".26"/>
    </filter>
  </defs>
  <rect width="1024" height="500" fill="url(#background)"/>
  <circle cx="12" cy="4" r="124" fill="#75D7BC" opacity=".09"/>
  <circle cx="941" cy="74" r="102" fill="#9CE6D0" opacity=".08"/>
  <circle cx="866" cy="502" r="158" fill="#062D27" opacity=".16"/>
  <circle cx="481" cy="445" r="86" fill="#70D3B8" opacity=".07"/>
  <g fill="#F9C15B" opacity=".68">
    <path d="M91 81c3 13 8 18 21 21-13 3-18 8-21 21-3-13-8-18-21-21 13-3 18-8 21-21Z"/>
    <path d="M464 72c3 11 7 15 18 18-11 3-15 7-18 18-3-11-7-15-18-18 11-3 15-7 18-18Z"/>
    <path d="M927 196c3 12 7 16 19 19-12 3-16 7-19 19-3-12-7-16-19-19 12-3 16-7 19-19Z"/>
  </g>
  <g transform="translate(74 190)">
    <text x="0" y="0" fill="#FFFFFF" font-family="Arial, Helvetica, sans-serif" font-size="58" font-weight="700" letter-spacing="-1">Task Wizard</text>
    <text x="2" y="52" fill="#C2E7DC" font-family="Arial, Helvetica, sans-serif" font-size="23" font-weight="400">Organize your day, your way.</text>
    <rect x="2" y="88" width="220" height="42" rx="21" fill="#D7F3E8" opacity=".14"/>
    <text x="23" y="116" fill="#FDE29A" font-family="Arial, Helvetica, sans-serif" font-size="17" font-weight="700" letter-spacing=".5">PRIVATE BY DESIGN</text>
  </g>
  <g transform="translate(594 86)" filter="url(#cardShadow)">
    <rect width="354" height="326" rx="28" fill="#F7FCF9"/>
    <rect width="354" height="80" rx="28" fill="#D8F2E8"/>
    <rect y="52" width="354" height="28" fill="#D8F2E8"/>
    <text x="32" y="48" fill="#164C40" font-family="Arial, Helvetica, sans-serif" font-size="22" font-weight="700">Today’s focus</text>
    <g font-family="Arial, Helvetica, sans-serif">
      <circle cx="45" cy="132" r="12" fill="none" stroke="#7052A7" stroke-width="4"/>
      <text x="74" y="139" fill="#17372F" font-size="20" font-weight="700">Plan the week</text>
      <rect x="74" y="154" width="65" height="22" rx="11" fill="#E2DBF5"/>
      <text x="86" y="170" fill="#604993" font-size="13" font-weight="700">Work</text>
      <path d="M32 201h290" stroke="#DCE9E4" stroke-width="2"/>
      <circle cx="45" cy="240" r="12" fill="none" stroke="#E19A28" stroke-width="4"/>
      <text x="74" y="247" fill="#17372F" font-size="20" font-weight="700">Pick up groceries</text>
      <rect x="74" y="262" width="86" height="22" rx="11" fill="#FCE7C3"/>
      <text x="86" y="278" fill="#A26000" font-size="13" font-weight="700">Shopping</text>
    </g>
  </g>
  <g transform="translate(500 325) rotate(-45)" filter="url(#shadow)">
    <rect x="-58" y="-18" width="116" height="36" fill="url(#wand)"/>
    <rect x="-64" y="-15" width="10" height="30" fill="#6D267E" opacity=".6"/>
    <path d="M-79-11H-64V11H-79Q-86 0-79-11Z" fill="url(#silver)"/>
    <rect x="54" y="-15" width="10" height="30" fill="#EAB7EF" opacity=".55"/>
    <path d="M64-11H79Q86 0 79 11H64Z" fill="url(#silver)"/>
  </g>
  <g fill="url(#gold)" filter="url(#shadow)">
    <path d="M530 190c4 20 12 28 32 32-20 4-28 12-32 32-4-20-12-28-32-32 20-4 28-12 32-32Z"/>
    <path d="M564 305c3 13 8 18 21 21-13 3-18 8-21 21-3-13-8-18-21-21 13-3 18-8 21-21Z"/>
    <circle cx="500" cy="252" r="7"/>
  </g>
</svg>
